<svg width="113" height="113" viewBox="0 0 113 113" fill="none" xmlns="http://www.w3.org/2000/svg">
<g clip-path="url(#clip0_4_46)">
<circle cx="56.5" cy="56.5" r="56.5" fill="#FFF8E7"/>
<path fill-rule="evenodd" clip-rule="evenodd" d="M59.929 27.019C59.894 26.4792 60.0061 25.9512 60.2421 25.4842C60.478 25.0172 60.8355 24.6113 61.2887 24.3179C61.742 24.0246 62.2583 23.8674 62.7816 23.8486C63.3026 23.8275 63.8283 23.9448 64.3025 24.2006C64.7768 24.4564 65.1623 24.8342 65.4356 25.2824C65.7066 25.7306 65.8585 26.2493 65.8678 26.7914C65.8725 27.1856 65.5571 27.5094 65.1646 27.5141C64.7721 27.5188 64.4497 27.202 64.445 26.8078C64.4404 26.5262 64.3609 26.2563 64.2208 26.024C64.0806 25.794 63.8797 25.5992 63.6297 25.4631C63.382 25.3294 63.1064 25.2683 62.8353 25.2777C62.5667 25.2871 62.3003 25.3692 62.062 25.5241C61.8261 25.6767 61.6392 25.8879 61.5177 26.1296C61.3962 26.3713 61.3378 26.6482 61.3541 26.9322C61.3798 27.3264 61.0808 27.6667 60.6883 27.6901C60.2958 27.716 59.957 27.4156 59.9313 27.0213L59.929 27.019ZM52.4576 57.2986H61.4055V58.5424H57.9829C57.9829 59.3473 57.3334 59.9973 56.5344 59.9973C55.7354 59.9973 55.0859 59.3449 55.0859 58.5424H52.4576V57.2986V57.2986ZM50.446 55.0598H63.4147V56.3036H50.446V55.0598V55.0598ZM68.877 33.2706C69.4167 33.5053 69.8348 33.916 70.0872 34.4158C70.3372 34.9133 70.4189 35.4953 70.2858 36.0703C70.1526 36.6452 69.8232 37.131 69.3769 37.4689C68.933 37.8045 68.377 37.9875 67.7906 37.957C67.3981 37.9359 67.0944 37.6003 67.1154 37.2061C67.1364 36.8118 67.4705 36.5067 67.863 36.5279C68.1083 36.5396 68.3396 36.4645 68.5219 36.326C68.7041 36.1876 68.8396 35.9858 68.8933 35.7464C68.9494 35.507 68.9167 35.2653 68.8116 35.0612C68.7088 34.857 68.5359 34.6857 68.3093 34.5895C67.9471 34.4322 67.7789 34.0122 67.9355 33.6484C68.092 33.2847 68.5102 33.1157 68.8723 33.273L68.877 33.2706ZM50.446 53.7973H63.4147V49.0452C63.4848 49.0264 63.5549 49.0053 63.6227 48.9819C64.7815 48.6087 65.8141 47.8484 66.5197 46.7689C66.9168 46.1588 67.1808 45.4923 67.3117 44.8118C67.7532 44.7601 68.1808 44.6334 68.5756 44.4386C69.1667 44.1476 69.683 43.7041 70.0661 43.1385C70.4493 42.573 70.6712 41.9276 70.725 41.2706C70.76 40.8341 70.7203 40.3929 70.6082 39.9634C70.9236 39.7687 71.2133 39.5387 71.4773 39.2806C72.2599 38.5108 72.7949 37.4877 72.9515 36.3401C73.108 35.1926 72.8673 34.0638 72.3183 33.1134C72.1665 32.8482 71.9889 32.5995 71.7927 32.3648C72.0099 31.8344 72.1291 31.2736 72.1478 30.7057C72.1711 29.9665 72.0239 29.2225 71.7015 28.535C71.3791 27.8474 70.9025 27.2584 70.3185 26.8054C69.8722 26.4581 69.3629 26.1906 68.8139 26.024C68.6714 25.2167 68.363 24.4329 67.8934 23.7242C67.1972 22.6729 66.2159 21.8914 65.1015 21.4409C63.9895 20.9903 62.7442 20.8729 61.52 21.1452C60.2935 21.4174 59.2141 22.0557 58.3941 22.9357C57.8287 23.5435 57.3848 24.2686 57.1021 25.0712C56.7096 26.1906 56.8171 26.8359 56.8171 28.0257V52.5536H55.163V21.7131C48.4952 21.4197 42.3461 25.8386 43.1195 33.0453C43.2666 34.0521 43.0237 34.9603 42.3952 35.7699L40.1851 38.6C39.9842 38.9027 39.9444 39.2852 40.0776 39.6208C40.2108 39.9588 40.5005 40.2075 40.8533 40.292C41.7831 40.4586 42.0705 40.9068 41.713 41.6367C41.178 42.1881 41.0355 42.5894 41.2855 42.8405C41.4467 43.0189 41.449 43.2887 41.2925 43.4694C41.1359 43.683 41.206 43.9247 41.5027 44.1922C42.0097 44.847 42.1172 45.5838 41.8275 46.4052C41.6476 46.8557 41.671 47.3626 41.8929 47.7944C42.1149 48.2262 42.5144 48.5383 42.9839 48.6486C43.7549 48.8082 44.5446 48.8927 45.3459 48.9021C47.6659 48.9255 49.3667 50.5565 50.4484 53.795L50.446 53.7973ZM61.9849 52.5536H58.2422V42.4064C58.8006 42.641 59.4361 42.6833 60.0482 42.4815C60.6813 42.2726 61.1836 41.8408 61.4943 41.2964C61.8027 40.7543 61.9172 40.0996 61.7747 39.4495C61.6906 39.0623 61.3098 38.8183 60.9243 38.9027C60.5388 38.9872 60.2958 39.3697 60.3799 39.7569C60.443 40.0503 60.3939 40.346 60.2538 40.5877C60.1159 40.8294 59.8916 41.0218 59.6066 41.1157C59.3216 41.2096 59.0249 41.1884 58.7702 41.0734C58.5529 40.9772 58.3684 40.813 58.2422 40.5971V31.6913C58.331 31.52 58.4688 31.3862 58.63 31.2994C58.8263 31.1961 59.0599 31.1586 59.2889 31.2149C59.5178 31.2712 59.7094 31.4073 59.8356 31.588C59.9617 31.7687 60.0225 31.9964 59.9968 32.2334C59.9524 32.6253 60.2327 32.982 60.6252 33.0266C61.0177 33.0712 61.3705 32.7895 61.4149 32.3953C61.4826 31.8016 61.3238 31.229 61.0037 30.769C60.6836 30.3091 60.2024 29.9641 59.6253 29.8233H59.623C59.1487 29.7083 58.6721 29.7459 58.2445 29.9078V27.9483C58.2445 26.8359 58.1394 26.1366 58.63 25.0947C58.838 24.6558 59.109 24.2546 59.4361 23.9049C60.0645 23.2314 60.8892 22.7433 61.8261 22.5344C62.7629 22.3256 63.7185 22.4171 64.5712 22.7644C65.4216 23.1094 66.1716 23.7054 66.7042 24.508C67.2369 25.3129 67.4962 26.2422 67.4846 27.1645C67.4729 28.0844 67.1855 29.0043 66.6318 29.7928C66.4052 30.1166 66.4823 30.5625 66.8047 30.7902C67.1271 31.0178 67.5733 30.9403 67.7976 30.6165C68.4401 29.7036 68.8046 28.6546 68.8887 27.5822C69.0872 27.6808 69.2741 27.7981 69.447 27.9319C69.8512 28.2463 70.1853 28.6593 70.4096 29.1404C70.6339 29.6215 70.739 30.1401 70.7226 30.6564C70.7156 30.8887 70.6829 31.121 70.6269 31.3487C70.3815 31.1961 70.1222 31.0624 69.8465 30.9497C69.4821 30.7995 69.0662 30.9779 68.9167 31.344C68.7695 31.7101 68.9447 32.1278 69.3092 32.278C70.0778 32.5901 70.6899 33.1462 71.0824 33.8268C71.4749 34.5097 71.6478 35.3193 71.5357 36.1453C71.4235 36.969 71.0404 37.7012 70.4797 38.2503C69.919 38.8018 69.1807 39.1703 68.3583 39.2641C67.9682 39.3087 67.6878 39.6654 67.7322 40.0573C67.7766 40.4492 68.127 40.7285 68.5149 40.6886C68.7718 40.6581 69.0265 40.6088 69.2695 40.5431C69.3045 40.7449 69.3139 40.9514 69.2975 41.1556C69.2648 41.5733 69.1246 41.9793 68.8863 42.3336C68.6457 42.6903 68.3209 42.9672 67.9495 43.1526C67.7742 43.2395 67.5873 43.3052 67.3934 43.3474C67.3888 43.3052 67.3864 43.2629 67.3818 43.2207C67.2603 42.0051 66.7369 40.8317 65.8305 39.9118C65.5524 39.6326 65.1015 39.6302 64.8235 39.9095C64.5432 40.1887 64.5432 40.6393 64.8212 40.9209C65.4894 41.5991 65.8749 42.465 65.9636 43.3591C66.0524 44.2556 65.8445 45.1825 65.3235 45.9828C64.8025 46.783 64.0409 47.3439 63.1858 47.6184C62.333 47.893 61.3845 47.8836 60.4991 47.5386C60.1323 47.3955 59.7187 47.5785 59.5786 47.947C59.4361 48.3154 59.6183 48.7284 59.9851 48.8716C60.6392 49.125 61.3144 49.2447 61.9826 49.2423V52.5512L61.9849 52.5536ZM60.9056 44.2955C60.6182 44.0256 60.1673 44.042 59.8986 44.3307C59.63 44.6193 59.6463 45.0746 59.936 45.3421C60.429 45.8044 61.0574 46.0485 61.6929 46.0696C62.326 46.0907 62.9685 45.8889 63.4918 45.4594C64.0175 45.03 64.3446 44.4386 64.4521 43.8097C64.5595 43.1855 64.4474 42.519 64.0969 41.937C63.8937 41.5991 63.4568 41.4912 63.1204 41.6953C62.7839 41.8995 62.6765 42.3383 62.8797 42.6762C63.0456 42.9508 63.097 43.2676 63.0456 43.568C62.9942 43.866 62.84 44.1453 62.5924 44.3471C62.3447 44.5513 62.0387 44.6451 61.7373 44.6358C61.4382 44.6264 61.1415 44.509 60.9056 44.2908V44.2955ZM66.1599 35.5164C65.7978 35.3592 65.3796 35.5235 65.223 35.8872C65.0151 36.3659 64.653 36.7367 64.2161 36.9597C63.7769 37.1826 63.2652 37.2553 62.7559 37.1404C62.2489 37.0254 61.8191 36.7367 61.5177 36.3472C61.2186 35.9576 61.0481 35.4648 61.0668 34.9415C61.0785 34.5472 60.7701 34.2164 60.3776 34.2046C59.9851 34.1929 59.6557 34.5026 59.644 34.8969C59.6159 35.7605 59.894 36.5771 60.3916 37.2225C60.8892 37.8678 61.6041 38.3466 62.4452 38.5366C63.2862 38.7267 64.1343 38.607 64.8586 38.2386C65.5852 37.8702 66.1856 37.2553 66.5313 36.4598C66.6879 36.0984 66.5243 35.676 66.1622 35.5188L66.1599 35.5164ZM63.1507 33.6672C62.7769 33.7916 62.576 34.1976 62.7022 34.5731C62.826 34.9485 63.2302 35.1503 63.604 35.0236C64.3679 34.7655 64.973 34.2422 65.3469 33.5874C65.7207 32.9327 65.8632 32.1466 65.702 31.3557C65.5408 30.5649 65.0992 29.8984 64.4964 29.4455C63.8937 28.9902 63.1344 28.7485 62.3354 28.8119C61.9429 28.8424 61.6485 29.1873 61.6789 29.5816C61.7093 29.9758 62.0527 30.2715 62.4452 30.241C62.8891 30.2058 63.3096 30.3372 63.6414 30.5883C63.9731 30.8394 64.2161 31.2055 64.3049 31.642C64.3936 32.0761 64.3142 32.5126 64.1063 32.8764C63.8984 33.2378 63.5666 33.5264 63.1507 33.6672Z" fill="#274290"/>
<path d="M12.456 78V69.52H13.992V78H12.456ZM13.224 67.888C12.9253 67.888 12.6747 67.792 12.472 67.6C12.28 67.408 12.184 67.1733 12.184 66.896C12.184 66.608 12.28 66.368 12.472 66.176C12.6747 65.984 12.9253 65.888 13.224 65.888C13.5227 65.888 13.768 65.984 13.96 66.176C14.1627 66.3573 14.264 66.5867 14.264 66.864C14.264 67.152 14.168 67.3973 13.976 67.6C13.784 67.792 13.5333 67.888 13.224 67.888ZM21.4528 69.44C22.1461 69.44 22.7541 69.5733 23.2768 69.84C23.8101 70.1067 24.2261 70.512 24.5248 71.056C24.8234 71.6 24.9728 72.288 24.9728 73.12V78H23.4368V73.296C23.4368 72.4747 23.2341 71.856 22.8288 71.44C22.4341 71.024 21.8741 70.816 21.1488 70.816C20.6048 70.816 20.1301 70.9227 19.7248 71.136C19.3194 71.3493 19.0048 71.664 18.7808 72.08C18.5674 72.496 18.4608 73.0133 18.4608 73.632V78H16.9248V69.52H18.3968V71.808L18.1568 71.2C18.4341 70.6453 18.8608 70.2133 19.4368 69.904C20.0128 69.5947 20.6848 69.44 21.4528 69.44ZM28.0394 78V68.768C28.0394 67.936 28.2794 67.2747 28.7594 66.784C29.25 66.2827 29.9434 66.032 30.8394 66.032C31.17 66.032 31.4847 66.0747 31.7834 66.16C32.0927 66.2347 32.354 66.3573 32.5674 66.528L32.1034 67.696C31.9434 67.568 31.762 67.472 31.5594 67.408C31.3567 67.3333 31.1434 67.296 30.9194 67.296C30.4714 67.296 30.13 67.424 29.8954 67.68C29.6607 67.9253 29.5434 68.2933 29.5434 68.784V69.92L29.5754 70.624V78H28.0394ZM26.5994 70.784V69.52H32.0074V70.784H26.5994ZM36.963 78.096C36.1097 78.096 35.3523 77.9093 34.691 77.536C34.0297 77.1627 33.507 76.6507 33.123 76C32.739 75.3387 32.547 74.592 32.547 73.76C32.547 72.9173 32.739 72.1707 33.123 71.52C33.507 70.8693 34.0297 70.3627 34.691 70C35.3523 69.6267 36.1097 69.44 36.963 69.44C37.8057 69.44 38.5577 69.6267 39.219 70C39.891 70.3627 40.4137 70.8693 40.787 71.52C41.171 72.16 41.363 72.9067 41.363 73.76C41.363 74.6027 41.171 75.3493 40.787 76C40.4137 76.6507 39.891 77.1627 39.219 77.536C38.5577 77.9093 37.8057 78.096 36.963 78.096ZM36.963 76.752C37.507 76.752 37.9923 76.6293 38.419 76.384C38.8563 76.1387 39.1977 75.792 39.443 75.344C39.6883 74.8853 39.811 74.3573 39.811 73.76C39.811 73.152 39.6883 72.6293 39.443 72.192C39.1977 71.744 38.8563 71.3973 38.419 71.152C37.9923 70.9067 37.507 70.784 36.963 70.784C36.419 70.784 35.9337 70.9067 35.507 71.152C35.0803 71.3973 34.739 71.744 34.483 72.192C34.227 72.6293 34.099 73.152 34.099 73.76C34.099 74.3573 34.227 74.8853 34.483 75.344C34.739 75.792 35.0803 76.1387 35.507 76.384C35.9337 76.6293 36.419 76.752 36.963 76.752ZM54.0953 69.44C54.7779 69.44 55.3806 69.5733 55.9033 69.84C56.4259 70.1067 56.8313 70.512 57.1193 71.056C57.4179 71.6 57.5673 72.288 57.5673 73.12V78H56.0313V73.296C56.0313 72.4747 55.8393 71.856 55.4553 71.44C55.0713 71.024 54.5326 70.816 53.8393 70.816C53.3273 70.816 52.8793 70.9227 52.4953 71.136C52.1113 71.3493 51.8126 71.664 51.5993 72.08C51.3966 72.496 51.2953 73.0133 51.2953 73.632V78H49.7593V73.296C49.7593 72.4747 49.5673 71.856 49.1833 71.44C48.8099 71.024 48.2713 70.816 47.5673 70.816C47.0659 70.816 46.6233 70.9227 46.2393 71.136C45.8553 71.3493 45.5566 71.664 45.3433 72.08C45.1299 72.496 45.0233 73.0133 45.0233 73.632V78H43.4873V69.52H44.9593V71.776L44.7193 71.2C44.9859 70.6453 45.3966 70.2133 45.9513 69.904C46.5059 69.5947 47.1513 69.44 47.8873 69.44C48.6979 69.44 49.3966 69.6427 49.9833 70.048C50.5699 70.4427 50.9539 71.0453 51.1353 71.856L50.5113 71.6C50.7673 70.9493 51.2153 70.4267 51.8553 70.032C52.4953 69.6373 53.2419 69.44 54.0953 69.44ZM64.1695 78.096C63.2628 78.096 62.4628 77.9093 61.7695 77.536C61.0868 77.1627 60.5535 76.6507 60.1695 76C59.7962 75.3493 59.6095 74.6027 59.6095 73.76C59.6095 72.9173 59.7908 72.1707 60.1535 71.52C60.5268 70.8693 61.0335 70.3627 61.6735 70C62.3242 69.6267 63.0548 69.44 63.8655 69.44C64.6868 69.44 65.4122 69.6213 66.0415 69.984C66.6708 70.3467 67.1615 70.8587 67.5135 71.52C67.8762 72.1707 68.0575 72.9333 68.0575 73.808C68.0575 73.872 68.0522 73.9467 68.0415 74.032C68.0415 74.1173 68.0362 74.1973 68.0255 74.272H60.8095V73.168H67.2255L66.6015 73.552C66.6122 73.008 66.5002 72.5227 66.2655 72.096C66.0308 71.6693 65.7055 71.3387 65.2895 71.104C64.8842 70.8587 64.4095 70.736 63.8655 70.736C63.3322 70.736 62.8575 70.8587 62.4415 71.104C62.0255 71.3387 61.7002 71.6747 61.4655 72.112C61.2308 72.5387 61.1135 73.0293 61.1135 73.584V73.84C61.1135 74.4053 61.2415 74.912 61.4975 75.36C61.7642 75.7973 62.1322 76.1387 62.6015 76.384C63.0708 76.6293 63.6095 76.752 64.2175 76.752C64.7188 76.752 65.1722 76.6667 65.5775 76.496C65.9935 76.3253 66.3562 76.0693 66.6655 75.728L67.5135 76.72C67.1295 77.168 66.6495 77.5093 66.0735 77.744C65.5082 77.9787 64.8735 78.096 64.1695 78.096ZM74.7184 69.44C75.4117 69.44 76.0197 69.5733 76.5424 69.84C77.0757 70.1067 77.4917 70.512 77.7904 71.056C78.089 71.6 78.2384 72.288 78.2384 73.12V78H76.7024V73.296C76.7024 72.4747 76.4997 71.856 76.0944 71.44C75.6997 71.024 75.1397 70.816 74.4144 70.816C73.8704 70.816 73.3957 70.9227 72.9904 71.136C72.585 71.3493 72.2704 71.664 72.0464 72.08C71.833 72.496 71.7264 73.0133 71.7264 73.632V78H70.1904V69.52H71.6624V71.808L71.4224 71.2C71.6997 70.6453 72.1264 70.2133 72.7024 69.904C73.2784 69.5947 73.9504 69.44 74.7184 69.44ZM83.993 78.096C83.1397 78.096 82.4783 77.8667 82.009 77.408C81.5397 76.9493 81.305 76.2933 81.305 75.44V67.664H82.841V75.376C82.841 75.8347 82.953 76.1867 83.177 76.432C83.4117 76.6773 83.7423 76.8 84.169 76.8C84.649 76.8 85.049 76.6667 85.369 76.4L85.849 77.504C85.6143 77.7067 85.3317 77.856 85.001 77.952C84.681 78.048 84.345 78.096 83.993 78.096ZM79.865 70.784V69.52H85.273V70.784H79.865ZM91.0568 78.096C90.2034 78.096 89.4461 77.9093 88.7848 77.536C88.1234 77.1627 87.6008 76.6507 87.2168 76C86.8328 75.3387 86.6408 74.592 86.6408 73.76C86.6408 72.9173 86.8328 72.1707 87.2168 71.52C87.6008 70.8693 88.1234 70.3627 88.7848 70C89.4461 69.6267 90.2034 69.44 91.0568 69.44C91.8994 69.44 92.6514 69.6267 93.3128 70C93.9848 70.3627 94.5074 70.8693 94.8808 71.52C95.2648 72.16 95.4568 72.9067 95.4568 73.76C95.4568 74.6027 95.2648 75.3493 94.8808 76C94.5074 76.6507 93.9848 77.1627 93.3128 77.536C92.6514 77.9093 91.8994 78.096 91.0568 78.096ZM91.0568 76.752C91.6008 76.752 92.0861 76.6293 92.5128 76.384C92.9501 76.1387 93.2914 75.792 93.5368 75.344C93.7821 74.8853 93.9048 74.3573 93.9048 73.76C93.9048 73.152 93.7821 72.6293 93.5368 72.192C93.2914 71.744 92.9501 71.3973 92.5128 71.152C92.0861 70.9067 91.6008 70.784 91.0568 70.784C90.5128 70.784 90.0274 70.9067 89.6008 71.152C89.1741 71.3973 88.8328 71.744 88.5768 72.192C88.3208 72.6293 88.1928 73.152 88.1928 73.76C88.1928 74.3573 88.3208 74.8853 88.5768 75.344C88.8328 75.792 89.1741 76.1387 89.6008 76.384C90.0274 76.6293 90.5128 76.752 91.0568 76.752ZM97.581 78V69.52H99.053V71.824L98.909 71.248C99.1437 70.6613 99.5383 70.2133 100.093 69.904C100.648 69.5947 101.33 69.44 102.141 69.44V70.928C102.077 70.9173 102.013 70.912 101.949 70.912C101.896 70.912 101.842 70.912 101.789 70.912C100.968 70.912 100.317 71.1573 99.837 71.648C99.357 72.1387 99.117 72.848 99.117 73.776V78H97.581Z" fill="#274290"/>
</g>
<defs>
<clipPath id="clip0_4_46">
<rect width="113" height="113" fill="white"/>
</clipPath>
</defs>
</svg>
