<svg width="179" height="40" viewBox="0 0 179 40" fill="none" xmlns="http://www.w3.org/2000/svg">
<path fill-rule="evenodd" clip-rule="evenodd" d="M19.9307 6.17588C19.8957 5.6223 20.0078 5.08075 20.2438 4.60178C20.4797 4.12281 20.8372 3.70642 21.2904 3.40556C21.7437 3.1047 22.26 2.94344 22.7833 2.92418C23.3043 2.90252 23.83 3.02286 24.3042 3.28522C24.7785 3.54757 25.164 3.93507 25.4373 4.39479C25.7083 4.8545 25.8602 5.38643 25.8696 5.94242C25.8742 6.34677 25.5588 6.67892 25.1663 6.68374C24.7738 6.68855 24.4514 6.36362 24.4468 5.95926C24.4421 5.67044 24.3626 5.39365 24.2225 5.15536C24.0823 4.91949 23.8814 4.71972 23.6314 4.58012C23.3837 4.44293 23.1081 4.38035 22.8371 4.38998C22.5684 4.3996 22.302 4.48384 22.0637 4.6427C21.8278 4.79915 21.6409 5.01576 21.5194 5.26367C21.3979 5.51158 21.3395 5.7956 21.3559 6.08683C21.3816 6.49118 21.0825 6.84018 20.69 6.86425C20.2975 6.89073 19.9588 6.58265 19.9331 6.17829L19.9307 6.17588ZM12.4593 37.2319H21.4072V38.5076H17.9846C17.9846 39.3331 17.3351 39.9998 16.5361 39.9998C15.7371 39.9998 15.0876 39.3307 15.0876 38.5076H12.4593V37.2319ZM10.4477 34.9357H23.4165V36.2114H10.4477V34.9357ZM28.8787 12.5878C29.4184 12.8285 29.8366 13.2497 30.0889 13.7624C30.3389 14.2726 30.4206 14.8695 30.2875 15.4592C30.1543 16.0489 29.8249 16.5471 29.3786 16.8937C28.9348 17.2379 28.3787 17.4257 27.7923 17.3944C27.3998 17.3727 27.0961 17.0285 27.1171 16.6242C27.1382 16.2198 27.4722 15.9069 27.8647 15.9286C28.11 15.9406 28.3413 15.8636 28.5236 15.7216C28.7058 15.5796 28.8413 15.3726 28.895 15.1271C28.9511 14.8816 28.9184 14.6337 28.8133 14.4243C28.7105 14.2149 28.5376 14.0392 28.311 13.9405C27.9488 13.7792 27.7806 13.3484 27.9372 12.9753C28.0937 12.6023 28.5119 12.429 28.874 12.5902L28.8787 12.5878ZM10.4477 33.6408H23.4165V28.7669C23.4865 28.7476 23.5566 28.726 23.6244 28.7019C24.7832 28.3192 25.8158 27.5394 26.5214 26.4322C26.9185 25.8064 27.1825 25.1229 27.3134 24.4249C27.7549 24.3719 28.1825 24.242 28.5773 24.0422C29.1684 23.7437 29.6847 23.2888 30.0679 22.7088C30.451 22.1287 30.673 21.4668 30.7267 20.7929C30.7617 20.3452 30.722 19.8927 30.6099 19.4523C30.9253 19.2525 31.215 19.0166 31.479 18.7519C32.2616 17.9624 32.7966 16.913 32.9532 15.736C33.1097 14.5591 32.8691 13.4013 32.32 12.4266C32.1682 12.1546 31.9906 11.8995 31.7944 11.6588C32.0116 11.1148 32.1308 10.5396 32.1495 9.9571C32.1728 9.19893 32.0257 8.43595 31.7032 7.73073C31.3808 7.02551 30.9042 6.42138 30.3202 5.95686C29.8739 5.60064 29.3646 5.32625 28.8156 5.15536C28.6731 4.3274 28.3647 3.5235 27.8951 2.79662C27.1989 1.71833 26.2177 0.916842 25.1032 0.45472C23.9912 -0.00740164 22.7459 -0.127746 21.5217 0.151453C20.2952 0.430651 19.2158 1.08532 18.3958 1.98791C17.8304 2.61129 17.3865 3.35502 17.1038 4.17817C16.7113 5.32625 16.8188 5.98815 16.8188 7.20844V32.3652H15.1647V0.733918C8.49695 0.433058 2.34785 4.96522 3.12116 12.3568C3.26835 13.3893 3.02537 14.3208 2.39691 15.1512L0.18679 18.0539C-0.0141301 18.3643 -0.0538469 18.7567 0.0793213 19.1008C0.212489 19.4474 0.502189 19.7026 0.854967 19.7892C1.78481 19.9601 2.07217 20.4198 1.71472 21.1684C1.17971 21.734 1.0372 22.1456 1.28718 22.4031C1.44838 22.586 1.45072 22.8628 1.29419 23.0481C1.13766 23.2672 1.20775 23.5151 1.50445 23.7895C2.01143 24.461 2.1189 25.2167 1.8292 26.0591C1.6493 26.5213 1.67267 27.0412 1.89461 27.484C2.11656 27.9269 2.51606 28.247 2.98566 28.3601C3.75663 28.5238 4.54629 28.6104 5.34764 28.6201C7.66757 28.6441 9.36838 30.3169 10.4501 33.6384L10.4477 33.6408ZM21.9866 32.3652H18.2439V21.9578C18.8023 22.1985 19.4378 22.2418 20.0499 22.0348C20.683 21.8206 21.1853 21.3778 21.496 20.8194C21.8044 20.2634 21.9189 19.5919 21.7764 18.9251C21.6923 18.528 21.3115 18.2777 20.926 18.3643C20.5405 18.451 20.2975 18.8433 20.3816 19.2404C20.4447 19.5413 20.3956 19.8446 20.2555 20.0925C20.1176 20.3404 19.8933 20.5378 19.6083 20.634C19.3233 20.7303 19.0266 20.7086 18.7719 20.5907C18.5546 20.492 18.3701 20.3235 18.2439 20.1021V10.968C18.3327 10.7923 18.4705 10.6551 18.6317 10.566C18.828 10.4601 19.0616 10.4216 19.2906 10.4794C19.5195 10.5372 19.7111 10.6768 19.8373 10.8621C19.9634 11.0474 20.0242 11.2809 19.9985 11.524C19.9541 11.9259 20.2344 12.2918 20.6269 12.3375C21.0194 12.3832 21.3722 12.0944 21.4166 11.6901C21.4843 11.0811 21.3255 10.4938 21.0054 10.0221C20.6853 9.55033 20.2041 9.19652 19.627 9.05211H19.6247C19.1504 8.93417 18.6738 8.97268 18.2463 9.13876V7.12901C18.2463 5.98815 18.1411 5.27089 18.6317 4.20224C18.8397 3.75215 19.1107 3.34057 19.4378 2.98195C20.0662 2.29117 20.8909 1.79054 21.8278 1.57633C22.7646 1.36212 23.7202 1.45598 24.5729 1.8122C25.4233 2.16601 26.1733 2.77736 26.7059 3.60052C27.2386 4.42608 27.4979 5.3792 27.4863 6.32511C27.4746 7.26861 27.1872 8.21211 26.6335 9.02082C26.4069 9.35297 26.484 9.81028 26.8064 10.0437C27.1288 10.2772 27.575 10.1978 27.7993 9.86564C28.4418 8.92936 28.8063 7.85348 28.8904 6.75353C29.0889 6.85462 29.2759 6.97497 29.4487 7.11216C29.8529 7.43468 30.187 7.85829 30.4113 8.35171C30.6356 8.84512 30.7407 9.37704 30.7243 9.90655C30.7173 10.1448 30.6846 10.3831 30.6286 10.6166C30.3833 10.4601 30.1239 10.3229 29.8482 10.2074C29.4838 10.0534 29.0679 10.2363 28.9184 10.6118C28.7712 10.9872 28.9464 11.4157 29.3109 11.5697C30.0795 11.8898 30.6916 12.4603 31.0841 13.1583C31.4766 13.8587 31.6495 14.689 31.5374 15.5363C31.4252 16.3811 31.0421 17.132 30.4814 17.6952C29.9207 18.2608 29.1824 18.6387 28.36 18.735C27.9699 18.7807 27.6895 19.1466 27.7339 19.5485C27.7783 19.9505 28.1287 20.2369 28.5166 20.196C28.7736 20.1647 29.0282 20.1141 29.2712 20.0468C29.3062 20.2537 29.3156 20.4656 29.2992 20.6749C29.2665 21.1034 29.1263 21.5198 28.888 21.8832C28.6474 22.2491 28.3226 22.5331 27.9512 22.7232C27.776 22.8123 27.5891 22.8797 27.3951 22.923C27.3905 22.8797 27.3881 22.8363 27.3835 22.793C27.262 21.5462 26.7386 20.3428 25.8322 19.3993C25.5542 19.1129 25.1033 19.1105 24.8252 19.3969C24.5449 19.6833 24.5449 20.1454 24.8229 20.4343C25.4911 21.1299 25.8766 22.018 25.9653 22.935C26.0541 23.8544 25.8462 24.8052 25.3252 25.6259C24.8042 26.4467 24.0426 27.0219 23.1875 27.3035C22.3348 27.5851 21.3862 27.5755 20.5008 27.2217C20.134 27.0749 19.7205 27.2626 19.5803 27.6405C19.4378 28.0184 19.62 28.442 19.9868 28.5888C20.6409 28.8487 21.3161 28.9715 21.9843 28.9691V32.3628L21.9866 32.3652ZM20.9073 23.8954C20.6199 23.6186 20.169 23.6354 19.9003 23.9315C19.6317 24.2275 19.648 24.6944 19.9377 24.9688C20.4307 25.443 21.0591 25.6933 21.6946 25.715C22.3277 25.7366 22.9702 25.5296 23.4936 25.0892C24.0192 24.6487 24.3463 24.0422 24.4538 23.3971C24.5612 22.7569 24.4491 22.0733 24.0986 21.4764C23.8954 21.1299 23.4585 21.0191 23.1221 21.2285C22.7857 21.4379 22.6782 21.888 22.8814 22.2346C23.0473 22.5162 23.0987 22.8411 23.0473 23.1492C22.9959 23.4549 22.8417 23.7413 22.5941 23.9483C22.3464 24.1577 22.0404 24.254 21.739 24.2444C21.44 24.2347 21.1432 24.1144 20.9073 23.8905V23.8954ZM26.1616 14.8912C25.7995 14.7299 25.3813 14.8984 25.2247 15.2715C25.0168 15.7625 24.6547 16.1428 24.2178 16.3714C23.7786 16.6001 23.2669 16.6747 22.7576 16.5568C22.2506 16.4388 21.8208 16.1428 21.5194 15.7432C21.2203 15.3437 21.0498 14.8383 21.0685 14.3015C21.0802 13.8972 20.7718 13.5578 20.3793 13.5458C19.9868 13.5337 19.6574 13.8514 19.6457 14.2558C19.6177 15.1415 19.8957 15.9791 20.3933 16.641C20.8909 17.3029 21.6058 17.7939 22.4469 17.9889C23.288 18.1838 24.136 18.0611 24.8603 17.6832C25.5869 17.3053 26.1873 16.6747 26.5331 15.8588C26.6896 15.4881 26.526 15.0549 26.1639 14.8936L26.1616 14.8912ZM23.1525 12.9946C22.7786 13.1221 22.5777 13.5385 22.7039 13.9236C22.8277 14.3087 23.2319 14.5157 23.6057 14.3858C24.3697 14.121 24.9748 13.5843 25.3486 12.9128C25.7224 12.2412 25.8649 11.4349 25.7037 10.6238C25.5425 9.81268 25.1009 9.12913 24.4982 8.6646C23.8954 8.19767 23.1361 7.94976 22.3371 8.01474C21.9446 8.04603 21.6502 8.39984 21.6806 8.8042C21.711 9.20856 22.0544 9.51182 22.4469 9.48053C22.8908 9.44443 23.3113 9.57922 23.6431 9.83675C23.9748 10.0943 24.2178 10.4698 24.3066 10.9174C24.3954 11.3627 24.3159 11.8104 24.108 12.1835C23.9001 12.5541 23.5683 12.8502 23.1525 12.9946Z" fill="#FFF8E7"/>
<path d="M43.184 28.1282V15.4082H45.488V28.1282H43.184ZM44.336 12.9602C43.888 12.9602 43.512 12.8162 43.208 12.5282C42.92 12.2402 42.776 11.8882 42.776 11.4722C42.776 11.0402 42.92 10.6802 43.208 10.3922C43.512 10.1042 43.888 9.9602 44.336 9.9602C44.784 9.9602 45.152 10.1042 45.44 10.3922C45.744 10.6642 45.896 11.0082 45.896 11.4242C45.896 11.8562 45.752 12.2242 45.464 12.5282C45.176 12.8162 44.8 12.9602 44.336 12.9602ZM56.6791 15.2882C57.7191 15.2882 58.6311 15.4882 59.4151 15.8882C60.2151 16.2882 60.8391 16.8962 61.2871 17.7122C61.7351 18.5282 61.9591 19.5602 61.9591 20.8082V28.1282H59.6551V21.0722C59.6551 19.8402 59.3511 18.9122 58.7431 18.2882C58.1511 17.6642 57.3111 17.3522 56.2231 17.3522C55.4071 17.3522 54.6951 17.5122 54.0871 17.8322C53.4791 18.1522 53.0071 18.6242 52.6711 19.2482C52.3511 19.8722 52.1911 20.6482 52.1911 21.5762V28.1282H49.8871V15.4082H52.0951V18.8402L51.7351 17.9282C52.1511 17.0962 52.7911 16.4482 53.6551 15.9842C54.5191 15.5202 55.5271 15.2882 56.6791 15.2882ZM66.5591 28.1282V14.2802C66.5591 13.0322 66.9191 12.0402 67.6391 11.3042C68.3751 10.5522 69.4151 10.1762 70.7591 10.1762C71.2551 10.1762 71.7271 10.2402 72.1751 10.3682C72.6391 10.4802 73.0311 10.6642 73.3511 10.9202L72.6551 12.6722C72.4151 12.4802 72.1431 12.3362 71.8391 12.2402C71.5351 12.1282 71.2151 12.0722 70.8791 12.0722C70.2071 12.0722 69.6951 12.2642 69.3431 12.6482C68.9911 13.0162 68.8151 13.5682 68.8151 14.3042V16.0082L68.8631 17.0642V28.1282H66.5591ZM64.3991 17.3042V15.4082H72.5111V17.3042H64.3991ZM79.9445 28.2722C78.6645 28.2722 77.5285 27.9922 76.5365 27.4322C75.5445 26.8722 74.7605 26.1042 74.1845 25.1282C73.6085 24.1362 73.3205 23.0162 73.3205 21.7682C73.3205 20.5042 73.6085 19.3842 74.1845 18.4082C74.7605 17.4322 75.5445 16.6722 76.5365 16.1282C77.5285 15.5682 78.6645 15.2882 79.9445 15.2882C81.2085 15.2882 82.3365 15.5682 83.3285 16.1282C84.3365 16.6722 85.1205 17.4322 85.6805 18.4082C86.2565 19.3682 86.5445 20.4882 86.5445 21.7682C86.5445 23.0322 86.2565 24.1522 85.6805 25.1282C85.1205 26.1042 84.3365 26.8722 83.3285 27.4322C82.3365 27.9922 81.2085 28.2722 79.9445 28.2722ZM79.9445 26.2562C80.7605 26.2562 81.4885 26.0722 82.1285 25.7042C82.7845 25.3362 83.2965 24.8162 83.6645 24.1442C84.0325 23.4562 84.2165 22.6642 84.2165 21.7682C84.2165 20.8562 84.0325 20.0722 83.6645 19.4162C83.2965 18.7442 82.7845 18.2242 82.1285 17.8562C81.4885 17.4882 80.7605 17.3042 79.9445 17.3042C79.1285 17.3042 78.4005 17.4882 77.7605 17.8562C77.1205 18.2242 76.6085 18.7442 76.2245 19.4162C75.8405 20.0722 75.6485 20.8562 75.6485 21.7682C75.6485 22.6642 75.8405 23.4562 76.2245 24.1442C76.6085 24.8162 77.1205 25.3362 77.7605 25.7042C78.4005 26.0722 79.1285 26.2562 79.9445 26.2562ZM105.643 15.2882C106.667 15.2882 107.571 15.4882 108.355 15.8882C109.139 16.2882 109.747 16.8962 110.179 17.7122C110.627 18.5282 110.851 19.5602 110.851 20.8082V28.1282H108.547V21.0722C108.547 19.8402 108.259 18.9122 107.683 18.2882C107.107 17.6642 106.299 17.3522 105.259 17.3522C104.491 17.3522 103.819 17.5122 103.243 17.8322C102.667 18.1522 102.219 18.6242 101.899 19.2482C101.595 19.8722 101.443 20.6482 101.443 21.5762V28.1282H99.1389V21.0722C99.1389 19.8402 98.8509 18.9122 98.2749 18.2882C97.7149 17.6642 96.9069 17.3522 95.8509 17.3522C95.0989 17.3522 94.4349 17.5122 93.8589 17.8322C93.2829 18.1522 92.8349 18.6242 92.5149 19.2482C92.1949 19.8722 92.0349 20.6482 92.0349 21.5762V28.1282H89.7309V15.4082H91.9389V18.7922L91.5789 17.9282C91.9789 17.0962 92.5949 16.4482 93.4269 15.9842C94.2589 15.5202 95.2269 15.2882 96.3309 15.2882C97.5469 15.2882 98.5949 15.5922 99.4749 16.2002C100.355 16.7922 100.931 17.6962 101.203 18.9122L100.267 18.5282C100.651 17.5522 101.323 16.7682 102.283 16.1762C103.243 15.5842 104.363 15.2882 105.643 15.2882ZM120.754 28.2722C119.394 28.2722 118.194 27.9922 117.154 27.4322C116.13 26.8722 115.33 26.1042 114.754 25.1282C114.194 24.1522 113.914 23.0322 113.914 21.7682C113.914 20.5042 114.186 19.3842 114.73 18.4082C115.29 17.4322 116.05 16.6722 117.01 16.1282C117.986 15.5682 119.082 15.2882 120.298 15.2882C121.53 15.2882 122.618 15.5602 123.562 16.1042C124.506 16.6482 125.242 17.4162 125.77 18.4082C126.314 19.3842 126.586 20.5282 126.586 21.8402C126.586 21.9362 126.578 22.0482 126.562 22.1762C126.562 22.3042 126.554 22.4242 126.538 22.5362H115.714V20.8802H125.338L124.402 21.4562C124.418 20.6402 124.25 19.9122 123.898 19.2722C123.546 18.6322 123.058 18.1362 122.434 17.7842C121.826 17.4162 121.114 17.2322 120.298 17.2322C119.498 17.2322 118.786 17.4162 118.162 17.7842C117.538 18.1362 117.05 18.6402 116.698 19.2962C116.346 19.9362 116.17 20.6722 116.17 21.5042V21.8882C116.17 22.7362 116.362 23.4962 116.746 24.1682C117.146 24.8242 117.698 25.3362 118.402 25.7042C119.106 26.0722 119.914 26.2562 120.826 26.2562C121.578 26.2562 122.258 26.1282 122.866 25.8722C123.49 25.6162 124.034 25.2322 124.498 24.7202L125.77 26.2082C125.194 26.8802 124.474 27.3922 123.61 27.7442C122.762 28.0962 121.81 28.2722 120.754 28.2722ZM136.578 15.2882C137.618 15.2882 138.53 15.4882 139.314 15.8882C140.114 16.2882 140.738 16.8962 141.186 17.7122C141.634 18.5282 141.858 19.5602 141.858 20.8082V28.1282H139.554V21.0722C139.554 19.8402 139.25 18.9122 138.642 18.2882C138.05 17.6642 137.21 17.3522 136.122 17.3522C135.306 17.3522 134.594 17.5122 133.986 17.8322C133.378 18.1522 132.906 18.6242 132.57 19.2482C132.25 19.8722 132.09 20.6482 132.09 21.5762V28.1282H129.786V15.4082H131.994V18.8402L131.634 17.9282C132.05 17.0962 132.69 16.4482 133.554 15.9842C134.418 15.5202 135.426 15.2882 136.578 15.2882ZM150.49 28.2722C149.21 28.2722 148.218 27.9282 147.514 27.2402C146.81 26.5522 146.458 25.5682 146.458 24.2882V12.6242H148.762V24.1922C148.762 24.8802 148.93 25.4082 149.266 25.7762C149.618 26.1442 150.114 26.3282 150.754 26.3282C151.474 26.3282 152.074 26.1282 152.554 25.7282L153.274 27.3842C152.922 27.6882 152.498 27.9122 152.002 28.0562C151.522 28.2002 151.018 28.2722 150.49 28.2722ZM144.298 17.3042V15.4082H152.41V17.3042H144.298ZM161.085 28.2722C159.805 28.2722 158.669 27.9922 157.677 27.4322C156.685 26.8722 155.901 26.1042 155.325 25.1282C154.749 24.1362 154.461 23.0162 154.461 21.7682C154.461 20.5042 154.749 19.3842 155.325 18.4082C155.901 17.4322 156.685 16.6722 157.677 16.1282C158.669 15.5682 159.805 15.2882 161.085 15.2882C162.349 15.2882 163.477 15.5682 164.469 16.1282C165.477 16.6722 166.261 17.4322 166.821 18.4082C167.397 19.3682 167.685 20.4882 167.685 21.7682C167.685 23.0322 167.397 24.1522 166.821 25.1282C166.261 26.1042 165.477 26.8722 164.469 27.4322C163.477 27.9922 162.349 28.2722 161.085 28.2722ZM161.085 26.2562C161.901 26.2562 162.629 26.0722 163.269 25.7042C163.925 25.3362 164.437 24.8162 164.805 24.1442C165.173 23.4562 165.357 22.6642 165.357 21.7682C165.357 20.8562 165.173 20.0722 164.805 19.4162C164.437 18.7442 163.925 18.2242 163.269 17.8562C162.629 17.4882 161.901 17.3042 161.085 17.3042C160.269 17.3042 159.541 17.4882 158.901 17.8562C158.261 18.2242 157.749 18.7442 157.365 19.4162C156.981 20.0722 156.789 20.8562 156.789 21.7682C156.789 22.6642 156.981 23.4562 157.365 24.1442C157.749 24.8162 158.261 25.3362 158.901 25.7042C159.541 26.0722 160.269 26.2562 161.085 26.2562ZM170.872 28.1282V15.4082H173.08V18.8642L172.864 18.0002C173.216 17.1202 173.808 16.4482 174.64 15.9842C175.472 15.5202 176.496 15.2882 177.712 15.2882V17.5202C177.616 17.5042 177.52 17.4962 177.424 17.4962C177.344 17.4962 177.264 17.4962 177.184 17.4962C175.952 17.4962 174.976 17.8642 174.256 18.6002C173.536 19.3362 173.176 20.4002 173.176 21.7922V28.1282H170.872Z" fill="#FFF8E7"/>
</svg>
