<svg width="40" height="40" viewBox="0 0 40 40" fill="none" xmlns="http://www.w3.org/2000/svg">
<g clip-path="url(#clip0_7_19)">
<circle cx="20" cy="20" r="20" fill="#FFF8E7"/>
<path fill-rule="evenodd" clip-rule="evenodd" d="M21.8906 11.1673C21.8662 10.7936 21.9443 10.428 22.1088 10.1047C22.2733 9.78136 22.5224 9.50027 22.8383 9.29718C23.1542 9.09409 23.5141 8.98523 23.8789 8.97223C24.242 8.95761 24.6084 9.03884 24.9389 9.21594C25.2695 9.39304 25.5382 9.65463 25.7287 9.96496C25.9176 10.2753 26.0235 10.6344 26.03 11.0097C26.0332 11.2826 25.8134 11.5069 25.5398 11.5101C25.2662 11.5134 25.0415 11.294 25.0383 11.021C25.035 10.8261 24.9796 10.6392 24.8819 10.4784C24.7842 10.3192 24.6442 10.1843 24.47 10.0901C24.2973 9.99745 24.1052 9.95521 23.9163 9.96171C23.729 9.9682 23.5434 10.0251 23.3773 10.1323C23.2128 10.2379 23.0826 10.3841 22.9979 10.5515C22.9132 10.7188 22.8725 10.9106 22.8839 11.1072C22.9018 11.3801 22.6934 11.6157 22.4198 11.632C22.1462 11.6498 21.9101 11.4419 21.8922 11.1689L21.8906 11.1673ZM16.683 32.1315H22.9197V32.9927H20.5341C20.5341 33.5499 20.0814 34 19.5245 34C18.9676 34 18.5149 33.5483 18.5149 32.9927H16.683V32.1315ZM15.2809 30.5815H24.3201V31.4426H15.2809V30.5815ZM28.1273 15.4956C28.5035 15.6581 28.795 15.9424 28.9708 16.2885C29.1451 16.633 29.2021 17.0359 29.1093 17.434C29.0164 17.832 28.7868 18.1684 28.4758 18.4023C28.1664 18.6347 27.7789 18.7614 27.3701 18.7403C27.0966 18.7256 26.8849 18.4933 26.8995 18.2204C26.9142 17.9474 27.147 17.7362 27.4206 17.7508C27.5916 17.7589 27.7528 17.7069 27.8798 17.6111C28.0068 17.5152 28.1013 17.3755 28.1387 17.2098C28.1778 17.044 28.155 16.8767 28.0817 16.7353C28.0101 16.594 27.8896 16.4754 27.7316 16.4087C27.4792 16.2999 27.362 16.0091 27.4711 15.7572C27.5802 15.5054 27.8717 15.3884 28.1241 15.4973L28.1273 15.4956ZM15.2809 29.7074H24.3201V26.4173C24.369 26.4043 24.4179 26.3896 24.4651 26.3734C25.2728 26.115 25.9925 25.5886 26.4843 24.8412C26.7611 24.4188 26.9451 23.9574 27.0363 23.4862C27.3441 23.4504 27.6421 23.3627 27.9173 23.2279C28.3293 23.0264 28.6891 22.7193 28.9562 22.3277C29.2232 21.9362 29.3779 21.4894 29.4154 21.0344C29.4398 20.7322 29.4121 20.4268 29.334 20.1294C29.5538 19.9946 29.7557 19.8354 29.9397 19.6566C30.4853 19.1237 30.8582 18.4153 30.9673 17.6208C31.0764 16.8263 30.9086 16.0448 30.526 15.3868C30.4201 15.2032 30.2964 15.031 30.1596 14.8685C30.311 14.5013 30.3941 14.113 30.4071 13.7198C30.4234 13.208 30.3208 12.6929 30.0961 12.2169C29.8713 11.7408 29.5392 11.333 29.1321 11.0194C28.821 10.779 28.466 10.5937 28.0834 10.4784C27.984 9.91946 27.7691 9.37679 27.4418 8.88612C26.9565 8.15822 26.2726 7.61718 25.4958 7.30523C24.7207 6.99327 23.8528 6.91204 22.9995 7.10051C22.1446 7.28898 21.3923 7.73091 20.8207 8.3402C20.4267 8.76101 20.1173 9.26306 19.9202 9.81873C19.6466 10.5937 19.7216 11.0405 19.7216 11.8643V28.8463H18.5687V7.4937C13.9212 7.2906 9.63527 10.35 10.1743 15.3397C10.2769 16.0367 10.1075 16.6655 9.66947 17.226L8.129 19.1855C7.98896 19.3951 7.96128 19.6599 8.0541 19.8922C8.14691 20.1262 8.34884 20.2984 8.59472 20.3569C9.24283 20.4723 9.44312 20.7826 9.19397 21.2879C8.82107 21.6697 8.72174 21.9475 8.89598 22.1214C9.00834 22.2449 9.00996 22.4317 8.90086 22.5568C8.79176 22.7047 8.84061 22.872 9.04742 23.0573C9.40078 23.5106 9.47569 24.0207 9.27376 24.5894C9.14838 24.9014 9.16466 25.2523 9.31936 25.5513C9.47406 25.8502 9.75251 26.0663 10.0798 26.1427C10.6172 26.2532 11.1676 26.3116 11.7261 26.3181C13.3431 26.3344 14.5286 27.4636 15.2825 29.7058L15.2809 29.7074ZM23.3236 28.8463H20.7149V21.8208C21.1041 21.9833 21.547 22.0125 21.9736 21.8728C22.4149 21.7282 22.765 21.4292 22.9816 21.0523C23.1966 20.677 23.2763 20.2237 23.177 19.7736C23.1184 19.5055 22.853 19.3366 22.5843 19.3951C22.3156 19.4535 22.1462 19.7184 22.2049 19.9865C22.2488 20.1896 22.2146 20.3943 22.1169 20.5616C22.0209 20.729 21.8645 20.8622 21.6659 20.9272C21.4672 20.9922 21.2604 20.9776 21.0829 20.898C20.9315 20.8313 20.8028 20.7176 20.7149 20.5681V14.4022C20.7768 14.2836 20.8728 14.191 20.9852 14.1308C21.122 14.0593 21.2848 14.0333 21.4444 14.0723C21.604 14.1113 21.7375 14.2056 21.8254 14.3307C21.9134 14.4558 21.9557 14.6134 21.9378 14.7775C21.9069 15.0488 22.1023 15.2958 22.3758 15.3267C22.6494 15.3575 22.8953 15.1626 22.9262 14.8896C22.9735 14.4785 22.8627 14.0821 22.6396 13.7636C22.4166 13.4452 22.0811 13.2063 21.6789 13.1089H21.6773C21.3467 13.0292 21.0145 13.0552 20.7165 13.1674V11.8107C20.7165 11.0405 20.6432 10.5564 20.9852 9.83497C21.1301 9.53114 21.319 9.25331 21.547 9.01122C21.985 8.54492 22.5599 8.20697 23.2128 8.06236C23.8658 7.91776 24.5318 7.98113 25.1262 8.22159C25.7189 8.46043 26.2417 8.87312 26.6129 9.42879C26.9842 9.98608 27.165 10.6295 27.1568 11.268C27.1487 11.9049 26.9484 12.5418 26.5624 13.0877C26.4045 13.312 26.4582 13.6207 26.6829 13.7783C26.9077 13.9359 27.2187 13.8822 27.375 13.658C27.8228 13.026 28.0769 12.2997 28.1355 11.5572C28.2739 11.6255 28.4042 11.7067 28.5247 11.7993C28.8064 12.017 29.0392 12.303 29.1956 12.6361C29.3519 12.9691 29.4252 13.3282 29.4138 13.6857C29.4089 13.8465 29.3861 14.0074 29.347 14.165C29.176 14.0593 28.9953 13.9667 28.8031 13.8887C28.5491 13.7848 28.2592 13.9082 28.155 14.1617C28.0524 14.4152 28.1746 14.7044 28.4286 14.8084C28.9643 15.0245 29.391 15.4095 29.6645 15.8807C29.9381 16.3535 30.0586 16.914 29.9805 17.486C29.9023 18.0562 29.6352 18.5632 29.2444 18.9434C28.8536 19.3252 28.339 19.5803 27.7658 19.6453C27.4939 19.6761 27.2985 19.9231 27.3294 20.1944C27.3604 20.4658 27.6046 20.6591 27.8749 20.6315C28.0541 20.6104 28.2316 20.5762 28.4009 20.5308C28.4253 20.6705 28.4318 20.8135 28.4205 20.9548C28.3977 21.244 28.2999 21.5251 28.1339 21.7704C27.9661 22.0174 27.7398 22.2091 27.4809 22.3375C27.3587 22.3976 27.2285 22.4431 27.0933 22.4723C27.09 22.4431 27.0884 22.4138 27.0852 22.3846C27.0005 21.543 26.6357 20.7306 26.0039 20.0937C25.8101 19.9003 25.4958 19.8987 25.3021 20.0921C25.1067 20.2854 25.1067 20.5974 25.3004 20.7923C25.7662 21.2619 26.0348 21.8614 26.0967 22.4805C26.1586 23.1011 26.0137 23.7429 25.6505 24.2969C25.2874 24.851 24.7566 25.2393 24.1606 25.4294C23.5662 25.6195 22.9051 25.613 22.2879 25.3742C22.0323 25.275 21.744 25.4018 21.6463 25.6569C21.547 25.912 21.674 26.1979 21.9297 26.297C22.3856 26.4725 22.8562 26.5554 23.3219 26.5537V28.8446L23.3236 28.8463ZM22.5712 23.1287C22.371 22.9419 22.0567 22.9533 21.8694 23.1531C21.6821 23.353 21.6935 23.6682 21.8955 23.8534C22.2391 24.1735 22.6771 24.3424 23.12 24.3571C23.5613 24.3717 24.0091 24.232 24.3739 23.9346C24.7403 23.6373 24.9682 23.2279 25.0432 22.7924C25.1181 22.3602 25.0399 21.8988 24.7956 21.4959C24.654 21.2619 24.3495 21.1872 24.115 21.3285C23.8805 21.4699 23.8056 21.7737 23.9472 22.0077C24.0629 22.1978 24.0987 22.4171 24.0629 22.6251C24.027 22.8314 23.9196 23.0248 23.747 23.1645C23.5743 23.3058 23.361 23.3708 23.151 23.3643C22.9425 23.3578 22.7357 23.2766 22.5712 23.1255V23.1287ZM26.2335 17.0505C25.9811 16.9417 25.6896 17.0554 25.5805 17.3072C25.4356 17.6387 25.1832 17.8954 24.8787 18.0497C24.5725 18.2041 24.2159 18.2545 23.8609 18.1749C23.5076 18.0952 23.208 17.8954 22.9979 17.6257C22.7895 17.356 22.6706 17.0148 22.6836 16.6525C22.6918 16.3795 22.4768 16.1504 22.2032 16.1423C21.9297 16.1342 21.7001 16.3486 21.6919 16.6216C21.6724 17.2195 21.8662 17.7849 22.213 18.2317C22.5599 18.6785 23.0581 19.01 23.6444 19.1416C24.2306 19.2732 24.8217 19.1903 25.3265 18.9352C25.8329 18.6802 26.2514 18.2545 26.4924 17.7037C26.6015 17.4535 26.4875 17.161 26.2351 17.0521L26.2335 17.0505ZM24.1361 15.7702C23.8756 15.8563 23.7356 16.1374 23.8235 16.3974C23.9098 16.6573 24.1915 16.7971 24.452 16.7093C24.9845 16.5306 25.4063 16.1683 25.6668 15.715C25.9274 15.2617 26.0267 14.7174 25.9143 14.1698C25.802 13.6223 25.4942 13.1609 25.0741 12.8473C24.654 12.5321 24.1247 12.3647 23.5678 12.4086C23.2943 12.4297 23.0891 12.6686 23.1102 12.9415C23.1314 13.2145 23.3708 13.4192 23.6444 13.3981C23.9538 13.3737 24.2469 13.4647 24.4781 13.6385C24.7093 13.8124 24.8787 14.0658 24.9406 14.368C25.0024 14.6686 24.9471 14.9708 24.8022 15.2227C24.6572 15.4729 24.426 15.6727 24.1361 15.7702Z" fill="#274290"/>
</g>
<defs>
<clipPath id="clip0_7_19">
<rect width="40" height="40" fill="white"/>
</clipPath>
</defs>
</svg>
